<mxfile host="app.diagrams.net" modified="2020-05-30T03:37:07.846Z" agent="5.0 (Windows NT 10.0; WOW64) AppleWebKit/537.36 (KHTML, like Gecko) Chrome/84.0.4147.13 Safari/537.36" etag="Rt-FQbKWVKSfA7ZFUTv9" version="13.1.8" type="github">
  <diagram id="i2791ngCbLQseSlkUwbt" name="Page-1">
    <mxGraphModel dx="981" dy="526" grid="0" gridSize="10" guides="1" tooltips="1" connect="1" arrows="1" fold="1" page="1" pageScale="1" pageWidth="827" pageHeight="1169" math="0" shadow="0">
      <root>
        <mxCell id="0" />
        <mxCell id="1" parent="0" />
        <mxCell id="NmaBWuBQcBl2WBvaYUSr-6" value="" style="ellipse;shape=cloud;whiteSpace=wrap;html=1;dashed=1;" vertex="1" parent="1">
          <mxGeometry x="20" y="595" width="195" height="130" as="geometry" />
        </mxCell>
        <mxCell id="jUnSyPaDh8FVO5F6lZOA-3" value="" style="rounded=0;whiteSpace=wrap;html=1;dashed=1;" parent="1" vertex="1">
          <mxGeometry x="120" y="80" width="120" height="299" as="geometry" />
        </mxCell>
        <mxCell id="jUnSyPaDh8FVO5F6lZOA-4" value="TopicA_msg1" style="rounded=0;whiteSpace=wrap;html=1;" parent="1" vertex="1">
          <mxGeometry x="120" y="80" width="120" height="50" as="geometry" />
        </mxCell>
        <mxCell id="jUnSyPaDh8FVO5F6lZOA-5" value="TopicA_msg2" style="rounded=0;whiteSpace=wrap;html=1;" parent="1" vertex="1">
          <mxGeometry x="120" y="130" width="120" height="50" as="geometry" />
        </mxCell>
        <mxCell id="jUnSyPaDh8FVO5F6lZOA-6" value="TopicB_msg1" style="rounded=0;whiteSpace=wrap;html=1;" parent="1" vertex="1">
          <mxGeometry x="120" y="180" width="120" height="50" as="geometry" />
        </mxCell>
        <mxCell id="jUnSyPaDh8FVO5F6lZOA-7" value="TopicB_msg2" style="rounded=0;whiteSpace=wrap;html=1;" parent="1" vertex="1">
          <mxGeometry x="120" y="230" width="120" height="50" as="geometry" />
        </mxCell>
        <mxCell id="jUnSyPaDh8FVO5F6lZOA-8" value="..." style="text;html=1;strokeColor=none;fillColor=none;align=center;verticalAlign=middle;whiteSpace=wrap;rounded=0;dashed=1;" parent="1" vertex="1">
          <mxGeometry x="160" y="330" width="40" height="20" as="geometry" />
        </mxCell>
        <mxCell id="IjkTyQHNbskmDtRTg9kh-1" value="" style="rounded=1;whiteSpace=wrap;html=1;" parent="1" vertex="1">
          <mxGeometry x="320" y="80" width="130" height="40" as="geometry" />
        </mxCell>
        <mxCell id="IjkTyQHNbskmDtRTg9kh-2" value="TopicA_Consumer1" style="text;html=1;strokeColor=none;fillColor=none;align=center;verticalAlign=middle;whiteSpace=wrap;rounded=0;" parent="1" vertex="1">
          <mxGeometry x="320" y="60" width="110" height="20" as="geometry" />
        </mxCell>
        <mxCell id="IjkTyQHNbskmDtRTg9kh-3" value="" style="rounded=1;whiteSpace=wrap;html=1;" parent="1" vertex="1">
          <mxGeometry x="320" y="180" width="130" height="40" as="geometry" />
        </mxCell>
        <mxCell id="IjkTyQHNbskmDtRTg9kh-4" value="TopicA_Consumer2" style="text;html=1;strokeColor=none;fillColor=none;align=center;verticalAlign=middle;whiteSpace=wrap;rounded=0;" parent="1" vertex="1">
          <mxGeometry x="320" y="160" width="110" height="20" as="geometry" />
        </mxCell>
        <mxCell id="NmaBWuBQcBl2WBvaYUSr-1" value="Broker集群" style="rounded=0;whiteSpace=wrap;html=1;dashed=1;" vertex="1" parent="1">
          <mxGeometry x="320" y="700" width="120" height="105" as="geometry" />
        </mxCell>
        <mxCell id="NmaBWuBQcBl2WBvaYUSr-2" value="P1" style="ellipse;whiteSpace=wrap;html=1;" vertex="1" parent="1">
          <mxGeometry x="90" y="630" width="50" height="20" as="geometry" />
        </mxCell>
        <mxCell id="NmaBWuBQcBl2WBvaYUSr-3" value="P3" style="ellipse;whiteSpace=wrap;html=1;" vertex="1" parent="1">
          <mxGeometry x="120" y="670" width="50" height="20" as="geometry" />
        </mxCell>
        <mxCell id="NmaBWuBQcBl2WBvaYUSr-4" value="P2" style="ellipse;whiteSpace=wrap;html=1;" vertex="1" parent="1">
          <mxGeometry x="60" y="670" width="50" height="20" as="geometry" />
        </mxCell>
        <mxCell id="NmaBWuBQcBl2WBvaYUSr-5" value="Producer GroupA" style="text;html=1;strokeColor=none;fillColor=none;align=center;verticalAlign=middle;whiteSpace=wrap;rounded=0;" vertex="1" parent="1">
          <mxGeometry x="70" y="650" width="100" height="20" as="geometry" />
        </mxCell>
        <mxCell id="NmaBWuBQcBl2WBvaYUSr-7" value="" style="ellipse;shape=cloud;whiteSpace=wrap;html=1;dashed=1;" vertex="1" parent="1">
          <mxGeometry x="17.5" y="780" width="195" height="130" as="geometry" />
        </mxCell>
        <mxCell id="NmaBWuBQcBl2WBvaYUSr-8" value="P1" style="ellipse;whiteSpace=wrap;html=1;" vertex="1" parent="1">
          <mxGeometry x="87.5" y="815" width="50" height="20" as="geometry" />
        </mxCell>
        <mxCell id="NmaBWuBQcBl2WBvaYUSr-9" value="P3" style="ellipse;whiteSpace=wrap;html=1;" vertex="1" parent="1">
          <mxGeometry x="117.5" y="855" width="50" height="20" as="geometry" />
        </mxCell>
        <mxCell id="NmaBWuBQcBl2WBvaYUSr-10" value="P2" style="ellipse;whiteSpace=wrap;html=1;" vertex="1" parent="1">
          <mxGeometry x="57.5" y="855" width="50" height="20" as="geometry" />
        </mxCell>
        <mxCell id="NmaBWuBQcBl2WBvaYUSr-11" value="Producer GroupB" style="text;html=1;strokeColor=none;fillColor=none;align=center;verticalAlign=middle;whiteSpace=wrap;rounded=0;" vertex="1" parent="1">
          <mxGeometry x="67.5" y="835" width="100" height="20" as="geometry" />
        </mxCell>
        <mxCell id="NmaBWuBQcBl2WBvaYUSr-12" value="" style="endArrow=classic;html=1;exitX=0.9;exitY=0.427;exitDx=0;exitDy=0;exitPerimeter=0;" edge="1" parent="1" source="NmaBWuBQcBl2WBvaYUSr-6">
          <mxGeometry width="50" height="50" relative="1" as="geometry">
            <mxPoint x="220" y="680" as="sourcePoint" />
            <mxPoint x="320" y="730" as="targetPoint" />
          </mxGeometry>
        </mxCell>
        <mxCell id="NmaBWuBQcBl2WBvaYUSr-26" value="TopicA Message" style="edgeLabel;html=1;align=center;verticalAlign=middle;resizable=0;points=[];" vertex="1" connectable="0" parent="NmaBWuBQcBl2WBvaYUSr-12">
          <mxGeometry x="-0.2607" relative="1" as="geometry">
            <mxPoint as="offset" />
          </mxGeometry>
        </mxCell>
        <mxCell id="NmaBWuBQcBl2WBvaYUSr-13" value="" style="endArrow=classic;html=1;exitX=0.875;exitY=0.5;exitDx=0;exitDy=0;exitPerimeter=0;entryX=0;entryY=0.5;entryDx=0;entryDy=0;" edge="1" parent="1" source="NmaBWuBQcBl2WBvaYUSr-7" target="NmaBWuBQcBl2WBvaYUSr-1">
          <mxGeometry width="50" height="50" relative="1" as="geometry">
            <mxPoint x="410" y="760" as="sourcePoint" />
            <mxPoint x="320" y="740" as="targetPoint" />
          </mxGeometry>
        </mxCell>
        <mxCell id="NmaBWuBQcBl2WBvaYUSr-28" value="TopicB，TopicC Message" style="edgeLabel;html=1;align=center;verticalAlign=middle;resizable=0;points=[];" vertex="1" connectable="0" parent="NmaBWuBQcBl2WBvaYUSr-13">
          <mxGeometry x="0.1142" y="-1" relative="1" as="geometry">
            <mxPoint x="-12.1" y="2.67" as="offset" />
          </mxGeometry>
        </mxCell>
        <mxCell id="NmaBWuBQcBl2WBvaYUSr-14" value="" style="ellipse;shape=cloud;whiteSpace=wrap;html=1;dashed=1;" vertex="1" parent="1">
          <mxGeometry x="590" y="585" width="195" height="130" as="geometry" />
        </mxCell>
        <mxCell id="NmaBWuBQcBl2WBvaYUSr-15" value="C1" style="ellipse;whiteSpace=wrap;html=1;" vertex="1" parent="1">
          <mxGeometry x="660" y="620" width="50" height="20" as="geometry" />
        </mxCell>
        <mxCell id="NmaBWuBQcBl2WBvaYUSr-16" value="C3" style="ellipse;whiteSpace=wrap;html=1;" vertex="1" parent="1">
          <mxGeometry x="690" y="660" width="50" height="20" as="geometry" />
        </mxCell>
        <mxCell id="NmaBWuBQcBl2WBvaYUSr-17" value="C2" style="ellipse;whiteSpace=wrap;html=1;" vertex="1" parent="1">
          <mxGeometry x="630" y="660" width="50" height="20" as="geometry" />
        </mxCell>
        <mxCell id="NmaBWuBQcBl2WBvaYUSr-18" value="Consumer GroupA" style="text;html=1;strokeColor=none;fillColor=none;align=center;verticalAlign=middle;whiteSpace=wrap;rounded=0;" vertex="1" parent="1">
          <mxGeometry x="630" y="640" width="110" height="20" as="geometry" />
        </mxCell>
        <mxCell id="NmaBWuBQcBl2WBvaYUSr-19" value="" style="ellipse;shape=cloud;whiteSpace=wrap;html=1;dashed=1;" vertex="1" parent="1">
          <mxGeometry x="590" y="780" width="195" height="130" as="geometry" />
        </mxCell>
        <mxCell id="NmaBWuBQcBl2WBvaYUSr-20" value="C1" style="ellipse;whiteSpace=wrap;html=1;" vertex="1" parent="1">
          <mxGeometry x="660" y="815" width="50" height="20" as="geometry" />
        </mxCell>
        <mxCell id="NmaBWuBQcBl2WBvaYUSr-21" value="C3" style="ellipse;whiteSpace=wrap;html=1;" vertex="1" parent="1">
          <mxGeometry x="690" y="855" width="50" height="20" as="geometry" />
        </mxCell>
        <mxCell id="NmaBWuBQcBl2WBvaYUSr-22" value="C2" style="ellipse;whiteSpace=wrap;html=1;" vertex="1" parent="1">
          <mxGeometry x="630" y="855" width="50" height="20" as="geometry" />
        </mxCell>
        <mxCell id="NmaBWuBQcBl2WBvaYUSr-23" value="Consumer GroupB" style="text;html=1;strokeColor=none;fillColor=none;align=center;verticalAlign=middle;whiteSpace=wrap;rounded=0;" vertex="1" parent="1">
          <mxGeometry x="620" y="835" width="120" height="20" as="geometry" />
        </mxCell>
        <mxCell id="NmaBWuBQcBl2WBvaYUSr-24" value="" style="endArrow=classic;html=1;exitX=0.127;exitY=0.584;exitDx=0;exitDy=0;exitPerimeter=0;entryX=1;entryY=0.25;entryDx=0;entryDy=0;" edge="1" parent="1" source="NmaBWuBQcBl2WBvaYUSr-14" target="NmaBWuBQcBl2WBvaYUSr-1">
          <mxGeometry width="50" height="50" relative="1" as="geometry">
            <mxPoint x="410" y="760" as="sourcePoint" />
            <mxPoint x="460" y="710" as="targetPoint" />
          </mxGeometry>
        </mxCell>
        <mxCell id="NmaBWuBQcBl2WBvaYUSr-29" value="TopicA，TopicB Message" style="edgeLabel;html=1;align=center;verticalAlign=middle;resizable=0;points=[];" vertex="1" connectable="0" parent="NmaBWuBQcBl2WBvaYUSr-24">
          <mxGeometry x="-0.2837" y="-2" relative="1" as="geometry">
            <mxPoint as="offset" />
          </mxGeometry>
        </mxCell>
        <mxCell id="NmaBWuBQcBl2WBvaYUSr-25" value="" style="endArrow=classic;html=1;exitX=0.124;exitY=0.564;exitDx=0;exitDy=0;exitPerimeter=0;entryX=1;entryY=0.5;entryDx=0;entryDy=0;" edge="1" parent="1" source="NmaBWuBQcBl2WBvaYUSr-19" target="NmaBWuBQcBl2WBvaYUSr-1">
          <mxGeometry width="50" height="50" relative="1" as="geometry">
            <mxPoint x="410" y="760" as="sourcePoint" />
            <mxPoint x="460" y="710" as="targetPoint" />
          </mxGeometry>
        </mxCell>
        <mxCell id="NmaBWuBQcBl2WBvaYUSr-30" value="TopicA Message" style="edgeLabel;html=1;align=center;verticalAlign=middle;resizable=0;points=[];" vertex="1" connectable="0" parent="NmaBWuBQcBl2WBvaYUSr-25">
          <mxGeometry x="-0.1302" y="-1" relative="1" as="geometry">
            <mxPoint as="offset" />
          </mxGeometry>
        </mxCell>
        <mxCell id="NmaBWuBQcBl2WBvaYUSr-31" value="Broker A" style="rounded=1;whiteSpace=wrap;html=1;" vertex="1" parent="1">
          <mxGeometry x="337.5" y="708" width="85" height="28" as="geometry" />
        </mxCell>
        <mxCell id="NmaBWuBQcBl2WBvaYUSr-32" value="Broker B" style="rounded=1;whiteSpace=wrap;html=1;" vertex="1" parent="1">
          <mxGeometry x="337.5" y="766" width="85" height="28" as="geometry" />
        </mxCell>
        <mxCell id="NmaBWuBQcBl2WBvaYUSr-33" value="NameServer集群" style="rounded=0;whiteSpace=wrap;html=1;dashed=1;" vertex="1" parent="1">
          <mxGeometry x="320" y="487" width="120" height="105" as="geometry" />
        </mxCell>
        <mxCell id="NmaBWuBQcBl2WBvaYUSr-34" value="NameServer A" style="rounded=1;whiteSpace=wrap;html=1;" vertex="1" parent="1">
          <mxGeometry x="337.5" y="495" width="85" height="28" as="geometry" />
        </mxCell>
        <mxCell id="NmaBWuBQcBl2WBvaYUSr-35" value="NameServer B" style="rounded=1;whiteSpace=wrap;html=1;" vertex="1" parent="1">
          <mxGeometry x="337.5" y="553" width="85" height="28" as="geometry" />
        </mxCell>
        <mxCell id="NmaBWuBQcBl2WBvaYUSr-36" value="" style="endArrow=classic;startArrow=classic;html=1;exitX=0.625;exitY=0.2;exitDx=0;exitDy=0;exitPerimeter=0;entryX=0;entryY=0.5;entryDx=0;entryDy=0;" edge="1" parent="1" source="NmaBWuBQcBl2WBvaYUSr-6" target="NmaBWuBQcBl2WBvaYUSr-33">
          <mxGeometry width="50" height="50" relative="1" as="geometry">
            <mxPoint x="188" y="593" as="sourcePoint" />
            <mxPoint x="238" y="543" as="targetPoint" />
          </mxGeometry>
        </mxCell>
        <mxCell id="NmaBWuBQcBl2WBvaYUSr-40" value="查询路由信息" style="edgeLabel;html=1;align=center;verticalAlign=middle;resizable=0;points=[];" vertex="1" connectable="0" parent="NmaBWuBQcBl2WBvaYUSr-36">
          <mxGeometry x="0.3193" y="1" relative="1" as="geometry">
            <mxPoint as="offset" />
          </mxGeometry>
        </mxCell>
        <mxCell id="NmaBWuBQcBl2WBvaYUSr-37" value="" style="endArrow=classic;startArrow=classic;html=1;entryX=0.25;entryY=0.25;entryDx=0;entryDy=0;entryPerimeter=0;exitX=1;exitY=0.438;exitDx=0;exitDy=0;exitPerimeter=0;" edge="1" parent="1" source="NmaBWuBQcBl2WBvaYUSr-33" target="NmaBWuBQcBl2WBvaYUSr-14">
          <mxGeometry width="50" height="50" relative="1" as="geometry">
            <mxPoint x="409" y="744" as="sourcePoint" />
            <mxPoint x="459" y="694" as="targetPoint" />
          </mxGeometry>
        </mxCell>
        <mxCell id="NmaBWuBQcBl2WBvaYUSr-41" value="查询路由信息" style="edgeLabel;html=1;align=center;verticalAlign=middle;resizable=0;points=[];" vertex="1" connectable="0" parent="NmaBWuBQcBl2WBvaYUSr-37">
          <mxGeometry x="-0.0966" y="1" relative="1" as="geometry">
            <mxPoint as="offset" />
          </mxGeometry>
        </mxCell>
        <mxCell id="NmaBWuBQcBl2WBvaYUSr-38" value="" style="endArrow=classic;startArrow=classic;html=1;entryX=0.5;entryY=1;entryDx=0;entryDy=0;exitX=0.5;exitY=0;exitDx=0;exitDy=0;" edge="1" parent="1" source="NmaBWuBQcBl2WBvaYUSr-1" target="NmaBWuBQcBl2WBvaYUSr-33">
          <mxGeometry width="50" height="50" relative="1" as="geometry">
            <mxPoint x="351" y="642" as="sourcePoint" />
            <mxPoint x="401" y="592" as="targetPoint" />
          </mxGeometry>
        </mxCell>
        <mxCell id="NmaBWuBQcBl2WBvaYUSr-39" value="路由信息上报" style="edgeLabel;html=1;align=center;verticalAlign=middle;resizable=0;points=[];" vertex="1" connectable="0" parent="NmaBWuBQcBl2WBvaYUSr-38">
          <mxGeometry x="0.1584" relative="1" as="geometry">
            <mxPoint as="offset" />
          </mxGeometry>
        </mxCell>
      </root>
    </mxGraphModel>
  </diagram>
</mxfile>
